HIERARCHY
ROOT hip
{
	OFFSET 0.000000 0.000000 0.000000 
	CHANNELS 6 Xposition Yposition Zposition Xrotation Zrotation Yrotation
	JOINT abdomen
	{
		OFFSET 0.000000 3.402643 0.000000 
		CHANNELS 3 Xrotation Zrotation Yrotation
		JOINT chest
		{
			OFFSET 0.000000 8.438565 -0.680529 
			CHANNELS 3 Xrotation Zrotation Yrotation
			JOINT neck
			{
				OFFSET 0.000000 10.207942 -0.272212 
				CHANNELS 3 Xrotation Zrotation Yrotation
				JOINT head
				{
					OFFSET 0.000000 3.130431 0.000000 
					CHANNELS 3 Xrotation Zrotation Yrotation
					End Site
					{
						OFFSET 0.000000 3.130435 0.000000 
					}
				}
			}
			JOINT lCollar
			{
				OFFSET 3.470700 6.669187 -0.816635 
				CHANNELS 3 Yrotation Zrotation Xrotation
				JOINT lShldr
				{
					OFFSET 3.198488 0.000000 0.000000 
					CHANNELS 3 Zrotation Yrotation Xrotation
					JOINT lForeArm
					{
						OFFSET 10.139888 0.000000 0.000000 
						CHANNELS 3 Yrotation Zrotation Xrotation
						JOINT lHand
						{
							OFFSET 8.370511 0.000000 0.000000 
							CHANNELS 3 Zrotation Yrotation Xrotation
							End Site
							{
								OFFSET 4.083176 0.000000 0.000000 
							}
						}
					}
				}
			}
			JOINT rCollar
			{
				OFFSET -3.470700 6.669187 -0.816635 
				CHANNELS 3 Yrotation Zrotation Xrotation
				JOINT rShldr
				{
					OFFSET -3.198488 0.000000 0.000000 
					CHANNELS 3 Zrotation Yrotation Xrotation
					JOINT rForeArm
					{
						OFFSET -10.139888 0.000000 0.000000 
						CHANNELS 3 Yrotation Zrotation Xrotation
						JOINT rHand
						{
							OFFSET -8.370511 0.000000 0.000000 
							CHANNELS 3 Zrotation Yrotation Xrotation
							End Site
							{
								OFFSET -4.083176 0.000000 0.000000 
							}
						}
					}
				}
			}
		}
	}
	JOINT lThigh
	{
		OFFSET 5.308129 -1.633274 1.361059 
		CHANNELS 3 Xrotation Zrotation Yrotation
		JOINT lShin
		{
			OFFSET -2.041588 -20.007561 0.000000 
			CHANNELS 3 Xrotation Zrotation Yrotation
			JOINT lFoot
			{
				OFFSET 0.000000 -19.190928 -1.224953 
				CHANNELS 3 Xrotation Yrotation Zrotation
				End Site
				{
					OFFSET 0.000000 -2.449906 4.627600 
				}
			}
		}
	}
	JOINT rThigh
	{
		OFFSET -5.308129 -1.633274 1.361059 
		CHANNELS 3 Xrotation Zrotation Yrotation
		JOINT rShin
		{
			OFFSET 2.041588 -20.007561 0.000000 
			CHANNELS 3 Xrotation Zrotation Yrotation
			JOINT rFoot
			{
				OFFSET 0.000000 -19.190928 -1.224953 
				CHANNELS 3 Xrotation Yrotation Zrotation
				End Site
				{
					OFFSET 0.000000 -2.449906 4.627600 
				}
			}
		}
	}
}
MOTION
Frames: 15
Frame Time: 0.011111
31.751926 52.729652 -11.473645 -8.787978 1.112880 -21.231319 21.597593 0.638736 1.195056 -17.751465 0.411900 0.327438 -15.795851 -1.182746 3.332461 8.475432 0.815966 6.244337 0.736540 -9.814158 1.078738 -74.202675 -64.984512 53.343781 -74.097298 8.469492 19.154978 8.524705 12.647240 0.113878 -3.299667 11.850037 1.750699 74.215279 56.428879 99.393105 65.090927 -9.459259 14.741716 -8.534408 -12.637552 85.150246 -1.932110 4.517415 0.473500 14.756102 -5.927599 -2.788333 -7.867423 15.374237 -1.498602 13.188299 -7.809846 -6.554559 19.540796 5.776098 3.452325 -31.996925 -11.013440 -4.520986 
31.744257 52.728382 -11.487073 -8.672054 0.791154 -21.113947 21.512650 1.129087 1.500646 -17.751669 0.225599 0.362706 -15.790792 -1.602907 3.247906 8.583354 1.235798 5.962464 0.736540 -9.814158 1.078738 -74.208855 -65.560814 53.903214 -74.383408 8.403029 19.296984 8.524705 12.647240 0.240831 -3.299667 11.850037 1.750699 74.299690 56.837002 98.770409 65.091057 -9.458629 14.731972 -8.534408 -12.637552 84.505714 -2.534690 4.913397 0.469519 15.732985 -5.886304 -2.949704 -8.738048 15.269382 -1.302278 13.608368 -7.361616 -6.440202 18.812225 5.797558 3.322380 -31.656656 -11.382690 -4.563741 
31.732428 52.730621 -11.541099 -8.118311 -0.105410 -21.055634 21.324575 2.384353 1.888000 -17.722759 -0.174484 0.334915 -15.954975 -1.423276 3.243759 8.827715 1.337017 6.022772 0.736540 -9.814158 1.078738 -73.955673 -66.320816 54.119614 -74.577179 8.357783 19.408751 8.524705 12.647240 0.035753 -3.299667 11.850037 1.750699 74.817017 57.377815 98.520058 65.059227 -9.459363 14.719331 -8.534408 -12.637552 83.861183 -3.552724 6.119624 0.537496 16.704348 -5.868300 -3.073670 -9.746047 15.115156 -1.058091 13.801882 -6.179327 -5.906985 18.212561 5.818915 3.251376 -31.541042 -11.699809 -4.655446 
31.698219 52.740845 -11.610788 -7.617627 -0.626471 -21.137804 21.044950 3.049728 2.126986 -17.781416 -0.242488 0.333732 -15.853202 -1.094961 3.380500 8.883072 1.198114 6.390615 0.736540 -9.814158 1.078738 -73.571770 -67.040794 54.229534 -74.852402 8.290887 19.549490 8.524705 12.647240 0.113878 -3.299667 11.850037 1.750699 75.202637 57.903305 98.386871 65.113701 -9.462440 14.752389 -8.534408 -12.637552 83.333847 -4.391954 6.958640 0.750225 17.316479 -5.860790 -3.128301 -9.696905 14.877554 -1.082856 13.755855 -5.409564 -5.305344 17.728542 5.827221 3.170509 -31.539454 -11.990503 -4.802503 
31.670088 52.742123 -11.635085 -7.483727 -0.904805 -21.233936 20.905422 3.359385 2.337515 -17.937683 -0.261604 0.363349 -15.149800 -1.079455 3.465978 8.267186 1.163241 6.569698 0.736540 -9.814158 1.078738 -73.263870 -67.595276 54.367352 -75.165932 8.209532 19.714966 8.524705 12.647240 0.221300 -3.299667 11.850037 1.750699 75.355659 58.338585 98.301262 65.219666 -9.460112 14.802697 -8.534408 -12.637552 82.992043 -4.686882 7.362276 0.742913 17.630777 -5.838847 -3.211916 -9.311598 14.768443 -1.206941 13.877963 -5.026632 -4.942618 17.486444 5.844182 3.150764 -31.552336 -12.171759 -4.892302 
31.665936 52.741806 -11.596723 -7.901655 -0.651540 -21.284428 21.013451 2.963706 2.193750 -18.006016 -0.231878 0.364130 -14.758547 -0.913366 3.450802 7.958519 0.953436 6.588627 0.736540 -9.814158 1.078738 -72.990677 -68.218369 54.398556 -75.359192 8.160299 19.816805 8.524705 12.647240 -0.091200 -3.299667 11.850037 1.750699 75.593102 58.868958 98.391167 65.348305 -9.460446 14.863807 -8.534408 -12.637552 82.806503 -4.216199 6.900232 0.491257 17.601538 -5.867877 -3.193750 -9.456906 14.968998 -1.133810 14.163835 -5.467408 -5.228221 17.540520 5.836106 3.154996 -31.413980 -12.035228 -4.770549 
31.658901 52.738926 -11.585855 -8.267081 -0.111221 -21.339510 21.076571 2.188548 2.005892 -18.035116 -0.017322 0.396867 -15.518185 0.046769 3.103902 9.261928 -0.852625 6.069137 0.736540 -9.814158 1.078738 -72.909760 -68.950340 54.616589 -75.470718 8.131289 19.879988 8.524705 12.647240 -0.374403 -3.299667 11.850037 1.750699 75.826202 59.507133 98.273285 65.411850 -9.458385 14.890826 -8.534408 -12.637552 82.357277 -3.735978 6.165041 0.473163 17.367884 -5.858475 -3.161564 -9.468516 15.140347 -1.114521 14.156596 -6.170829 -5.681326 17.704195 5.838220 3.179060 -31.312172 -11.780608 -4.613910 
31.643236 52.722298 -11.595125 -8.447137 0.100685 -21.252384 21.080524 1.858861 2.025076 -18.171759 0.061364 0.427224 -17.180368 2.083717 2.256495 12.022715 -4.970410 4.692403 0.736540 -9.814158 1.078738 -72.860283 -69.614182 55.068264 -75.661110 8.077393 19.981068 8.524705 12.647240 -0.393934 -3.299667 11.850037 1.750699 75.983597 60.010849 97.776855 65.422356 -9.458451 14.901562 -8.534408 -12.637552 81.683456 -3.494377 5.895017 0.519341 17.188951 -5.870324 -3.137544 -9.308461 15.090508 -1.169790 14.132313 -6.413131 -5.838081 17.862240 5.826056 3.192420 -31.456661 -11.643505 -4.602898 
31.630133 52.702484 -11.607911 -8.574452 0.010316 -21.088135 21.161085 1.980486 1.979028 -18.318256 0.043129 0.407330 -15.412603 -0.080990 2.955770 9.591543 -1.097694 5.716754 0.736540 -9.814158 1.078738 -72.452568 -70.333969 55.392159 -75.951653 7.993711 20.134480 8.524705 12.647240 -0.296278 -3.299667 11.850037 1.750699 76.237366 60.530968 97.505142 65.484383 -9.452200 14.918248 -8.534408 -12.637552 81.302597 -3.369243 5.956662 0.626177 17.216219 -5.850083 -3.136539 -9.199412 14.875195 -1.201336 14.308267 -6.295698 -5.832832 17.923693 5.823752 3.226541 -31.501137 -11.885952 -4.742130 
31.606153 52.700249 -11.664494 -8.393020 -0.449344 -20.999981 21.181665 2.551129 2.071332 -18.367119 0.004788 0.367854 -15.313800 -0.216801 3.143761 9.482829 -0.605919 6.089801 0.736540 -9.814158 1.078738 -71.928764 -71.345917 55.600533 -76.263474 7.905029 20.309162 8.524705 12.647240 0.016222 -3.299667 11.850037 1.750699 76.592079 61.380589 97.764206 65.581070 -9.452726 14.966844 -8.534408 -12.637552 81.224464 -3.601881 6.559205 0.689925 17.271690 -5.871594 -3.125293 -8.931273 14.712613 -1.283307 14.327371 -5.681184 -5.494694 17.913063 5.826837 3.206645 -31.385857 -12.309282 -4.888513 
31.568750 52.714314 -11.713086 -8.218909 -0.850968 -20.963243 21.132658 3.000278 2.238397 -18.376902 -0.014771 0.377433 -15.518083 -0.035305 3.136825 9.887739 -0.773738 6.125381 0.736540 -9.814158 1.078738 -71.556091 -72.368774 55.887138 -76.571289 7.809063 20.473480 8.524705 12.647240 0.240831 -3.299667 11.850037 1.750699 76.881325 62.222675 97.887772 65.686714 -9.448912 15.017483 -8.534408 -12.637552 80.931496 -3.804134 7.101281 0.512006 17.159012 -5.867194 -3.134483 -8.635670 14.872974 -1.341757 14.276589 -5.136807 -5.230881 18.046005 5.827652 3.227893 -31.479744 -12.522414 -5.015668 
31.541256 52.710793 -11.701899 -8.484257 -0.532634 -20.992069 21.063126 2.496941 2.220807 -18.376802 0.092280 0.417515 -15.343557 -0.507162 3.223836 9.925176 -0.015857 6.201519 0.736540 -9.814158 1.078738 -71.319160 -73.119171 56.251007 -76.849625 7.722212 20.635090 8.524705 12.647240 0.201769 -3.299667 11.850037 1.750699 77.003296 62.806076 97.681808 65.793877 -9.448139 15.067239 -8.534408 -12.637552 80.101418 -3.465560 6.667900 0.337655 16.996981 -5.858342 -3.108572 -8.731009 15.062630 -1.324558 14.271561 -5.565026 -5.522690 18.260899 5.828524 3.257139 -31.473112 -12.388894 -4.949288 
31.519199 52.690014 -11.700938 -8.771510 -0.010003 -20.997646 20.943037 1.771276 2.075931 -18.415730 0.228938 0.457720 -15.190566 -1.143762 3.332847 10.022139 1.136896 6.316753 0.736540 -9.814158 1.078738 -70.954453 -73.868591 56.663914 -77.126999 7.632122 20.785603 8.524705 12.647240 0.240831 -3.299667 11.850037 1.750699 77.315201 63.520302 97.640999 65.751709 -9.449593 15.042083 -8.534408 -12.637552 79.857285 -3.032939 6.027300 0.396664 16.756159 -5.869021 -3.068422 -9.145849 15.049412 -1.212241 14.172768 -6.178866 -5.960976 18.489870 5.813916 3.305412 -31.486052 -12.091470 -4.836023 
31.496181 52.666355 -11.724276 -8.841638 0.030226 -20.899158 20.902555 1.692950 2.065534 -18.474331 0.219641 0.457409 -14.997012 -1.360626 3.354532 9.924187 1.500010 6.326498 0.736540 -9.814158 1.078738 -70.386574 -74.733681 57.066967 -77.453430 7.524179 20.972364 8.524705 12.647240 0.484972 -3.299667 11.850037 1.750699 77.734779 64.397507 97.568390 65.793877 -9.448139 15.067239 -8.534408 -12.637552 80.384628 -2.819733 6.000507 0.401583 16.421513 -5.877974 -3.039578 -9.766973 15.030025 -1.051382 14.135741 -6.189972 -5.983344 18.717060 5.808157 3.315106 -31.757196 -11.946315 -4.858993 
31.482433 52.661247 -11.717563 -8.855334 0.029096 -20.820595 20.745880 1.754118 2.188116 -18.425613 0.111583 0.485962 -14.781678 -1.257219 3.329928 9.780731 1.242301 6.286208 0.736540 -9.814158 1.078738 -70.138145 -75.542664 57.392094 -77.843155 7.383221 21.186407 8.524705 12.647240 0.983019 -3.299667 11.850037 1.750699 77.819069 65.188148 97.300888 66.090668 -9.437908 15.205468 -8.534408 -12.637552 80.667824 -2.663728 5.991527 0.231098 16.148310 -5.887945 -3.006373 -9.543206 15.170277 -1.089017 14.084320 -6.188883 -6.053638 18.903622 5.798523 3.340149 -31.800964 -11.870132 -4.844342 
